<?xml version="1.0" encoding="UTF-8"?>
<svg width="806px" height="256px" viewBox="0 0 806 256" version="1.1" xmlns="http://www.w3.org/2000/svg" xmlns:xlink="http://www.w3.org/1999/xlink">
    <!-- Generator: Sketch 46.2 (44496) - http://www.bohemiancoding.com/sketch -->
    <title>logo_x256_github</title>
    <desc>Created with Sketch.</desc>
    <defs></defs>
    <g id="logo_final" stroke="none" stroke-width="1" fill="none" fill-rule="evenodd">
        <g id="logo_x256_github">
            <circle id="bg" fill="#4848DB" cx="128" cy="128" r="128"></circle>
            <text id="STACK" font-family="Rubik-Bold, Rubik" font-size="64" font-weight="bold" fill-opacity="0.896654212" fill="#000D23">
                <tspan x="301.672" y="109">STACK</tspan>
            </text>
            <text id="An-organized-way-to" font-family="Roboto-Light, Roboto" font-size="36" font-weight="300" line-spacing="19" fill-opacity="0.896654212" fill="#999999">
                <tspan x="301" y="172">An organized way to </tspan>
                <tspan x="301" y="221">take notes</tspan>
            </text>
            <g id="Group" transform="translate(55.000000, 25.000000)">
                <path d="M91.3246631,68.6529943 L137.873441,115.024037 C148.116544,125.22803 148.116544,141.77197 137.873441,151.975963 L91.3246631,198.347006 C81.08156,208.550998 64.4742086,208.550998 54.2311055,198.347006 L7.68232732,151.975963 C-2.56077577,141.77197 -2.56077577,125.22803 7.68232732,115.024037 L54.2311055,68.6529943 C64.4742086,58.4490019 81.08156,58.4490019 91.3246631,68.6529943 Z" id="Rectangle-2" fill="#FFFFFF"></path>
                <path d="M91.3246631,37.6529943 L137.873441,84.0240375 C148.116544,94.2280298 148.116544,110.77197 137.873441,120.975963 L91.3246631,167.347006 C81.08156,177.550998 64.4742086,177.550998 54.2311055,167.347006 L7.68232732,120.975963 C-2.56077577,110.77197 -2.56077577,94.2280298 7.68232732,84.0240375 L54.2311055,37.6529943 C64.4742086,27.4490019 81.08156,27.4490019 91.3246631,37.6529943 Z" id="Rectangle-2" fill="#4848DB"></path>
                <path d="M91.3246631,7.65299426 L137.873441,54.0240375 C148.116544,64.2280298 148.116544,80.7719702 137.873441,90.9759625 L91.3246631,137.347006 C81.08156,147.550998 64.4742086,147.550998 54.2311055,137.347006 L7.68232732,90.9759625 C-2.56077577,80.7719702 -2.56077577,64.2280298 7.68232732,54.0240375 L54.2311055,7.65299426 C64.4742086,-2.55099809 81.08156,-2.55099809 91.3246631,7.65299426 Z" id="Rectangle-2" fill="#FFFFFF"></path>
            </g>
        </g>
    </g>
</svg>