<?xml version="1.0" encoding="UTF-8"?>
<svg width="806px" height="256px" viewBox="0 0 806 256" version="1.1" xmlns="http://www.w3.org/2000/svg" xmlns:xlink="http://www.w3.org/1999/xlink">
    <!-- Generator: Sketch 46.2 (44496) - http://www.bohemiancoding.com/sketch -->
    <title>logo_x256_github</title>
    <desc>Created with Sketch.</desc>
    <defs>
        <path d="M58.2087619,60.1759258 L115.827056,118.787639 C116.057648,119.022207 116.057648,119.402516 115.827056,119.637084 L58.6262858,177.824074 C58.3956937,178.058642 58.0218301,178.058642 57.7912381,177.824074 L0.172944049,119.212361 C-0.0576480165,118.977793 -0.0576480165,118.597484 0.172944049,118.362916 L57.3737142,60.1759258 C57.6043063,59.9413581 57.9781699,59.9413581 58.2087619,60.1759258 Z" id="path-1"></path>
        <path d="M58.2087619,28.1759258 L115.827056,86.7876387 C116.057648,87.0222065 116.057648,87.402516 115.827056,87.6370838 L58.6262858,145.824074 C58.3956937,146.058642 58.0218301,146.058642 57.7912381,145.824074 L0.172944049,87.2123613 C-0.0576480165,86.9777935 -0.0576480165,86.597484 0.172944049,86.3629162 L57.3737142,28.1759258 C57.6043063,27.9413581 57.9781699,27.9413581 58.2087619,28.1759258 Z" id="path-2"></path>
        <path d="M58.2087619,0.175925843 L115.827056,58.7876387 C116.057648,59.0222065 116.057648,59.402516 115.827056,59.6370838 L58.6262858,117.824074 C58.3956937,118.058642 58.0218301,118.058642 57.7912381,117.824074 L0.172944049,59.2123613 C-0.0576480165,58.9777935 -0.0576480165,58.597484 0.172944049,58.3629162 L57.3737142,0.175925843 C57.6043063,-0.0586419478 57.9781699,-0.0586419478 58.2087619,0.175925843 Z" id="path-3"></path>
    </defs>
    <g id="logo_final" stroke="none" stroke-width="1" fill="none" fill-rule="evenodd">
        <g id="logo_x256_github">
            <circle id="bg" fill="#4848DB" cx="128" cy="128" r="128"></circle>
            <g id="logo" transform="translate(70.000000, 39.000000)">
                <g id="Rectangle">
                    <use fill="#FFFFFF" fill-rule="evenodd" xlink:href="#path-1"></use>
                    <path stroke="#FFFFFF" stroke-width="14" d="M63.2006326,55.2686631 L120.818927,113.880376 C123.727024,116.838613 123.727024,121.586109 120.818927,124.544347 L63.6181565,182.731337 C60.6445415,185.756221 55.7729824,185.756221 52.7993674,182.731337 L-4.81892662,124.119624 C-7.72702446,121.161387 -7.72702446,116.413891 -4.81892662,113.455653 L52.3818435,55.2686631 C55.3554585,52.243779 60.2270176,52.243779 63.2006326,55.2686631 Z"></path>
                </g>
                <g id="Rectangle">
                    <use fill="#4848DB" fill-rule="evenodd" xlink:href="#path-2"></use>
                    <path stroke="#4848DB" stroke-width="14" d="M63.2006326,23.2686631 L120.818927,81.880376 C123.727024,84.8386135 123.727024,89.5861091 120.818927,92.5443465 L63.6181565,150.731337 C60.6445415,153.756221 55.7729824,153.756221 52.7993674,150.731337 L-4.81892662,92.119624 C-7.72702446,89.1613865 -7.72702446,84.4138909 -4.81892662,81.4556535 L52.3818435,23.2686631 C55.3554585,20.243779 60.2270176,20.243779 63.2006326,23.2686631 Z"></path>
                </g>
                <g id="Rectangle">
                    <use fill="#FFFFFF" fill-rule="evenodd" xlink:href="#path-3"></use>
                    <path stroke="#FFFFFF" stroke-width="14" d="M63.2006326,-4.73133685 L120.818927,53.880376 C123.727024,56.8386135 123.727024,61.5861091 120.818927,64.5443465 L63.6181565,122.731337 C60.6445415,125.756221 55.7729824,125.756221 52.7993674,122.731337 L-4.81892662,64.119624 C-7.72702446,61.1613865 -7.72702446,56.4138909 -4.81892662,53.4556535 L52.3818435,-4.73133685 C55.3554585,-7.75622105 60.2270176,-7.75622105 63.2006326,-4.73133685 Z"></path>
                </g>
            </g>
            <text id="STACK" font-family="Rubik-Bold, Rubik" font-size="64" font-weight="bold" fill-opacity="0.896654212" fill="#000D23">
                <tspan x="301.672" y="109">STACK</tspan>
            </text>
            <text id="An-organized-way-to" font-family="Roboto-Light, Roboto" font-size="36" font-weight="300" line-spacing="19" fill-opacity="0.896654212" fill="#777777">
                <tspan x="301" y="172">An organized way to </tspan>
                <tspan x="301" y="221">take notes</tspan>
            </text>
        </g>
    </g>
</svg>